<svg width="454" height="270" viewBox="0 0 454 270" fill="none" xmlns="http://www.w3.org/2000/svg">
<rect y="1" width="452" height="269" rx="23" fill="url(#paint0_linear_107_4)"/>
<circle cx="57.4314" cy="147.569" r="48.4314" fill="#1D1D1D" fill-opacity="0.4"/>
<circle cx="80.5294" cy="112.549" r="48.4314" fill="#1D1D1D" fill-opacity="0.6"/>
<circle cx="388" cy="220" r="18" fill="#F9CCD1" fill-opacity="0.62"/>
<circle opacity="0.36" cx="410" cy="220" r="18" fill="#424242"/>
<path d="M276.903 1.12825L316.884 91.2851C319.345 96.8348 324.194 100.966 330.064 102.515L373.29 113.923L452.968 134.566" stroke="white" stroke-width="2"/>
<path d="M296 1L331.052 77.502C333.487 82.8151 338.123 86.7976 343.743 88.4023L393.346 102.567L451.803 119.26" stroke="white" stroke-width="2"/>
<path d="M315.797 2L345.312 68.2835C347.744 73.7467 352.494 77.8346 358.258 79.4265L400.504 91.0924L451.855 105.273" stroke="white" stroke-width="2"/>
<path d="M41.37 116.701H31.655V122.472C32.061 121.931 32.6603 121.476 33.453 121.109C34.265 120.742 35.1253 120.558 36.034 120.558C37.658 120.558 38.9727 120.906 39.978 121.602C41.0027 122.298 41.7277 123.178 42.153 124.241C42.5977 125.304 42.82 126.426 42.82 127.605C42.82 129.036 42.5397 130.312 41.979 131.433C41.4377 132.535 40.616 133.405 39.514 134.043C38.4313 134.681 37.0973 135 35.512 135C33.4047 135 31.713 134.478 30.437 133.434C29.161 132.39 28.3973 131.008 28.146 129.287H31.365C31.5777 130.196 32.0513 130.921 32.786 131.462C33.5207 131.984 34.439 132.245 35.541 132.245C36.9137 132.245 37.9383 131.829 38.615 130.998C39.311 130.167 39.659 129.065 39.659 127.692C39.659 126.3 39.311 125.237 38.615 124.502C37.919 123.748 36.8943 123.371 35.541 123.371C34.5937 123.371 33.7913 123.613 33.134 124.096C32.496 124.56 32.032 125.198 31.742 126.01H28.61V113.801H41.37V116.701ZM45.8555 130.592V128.098L55.5995 114.12H59.6015V127.721H62.2985V130.592H59.6015V135H56.3535V130.592H45.8555ZM56.4985 117.484L49.6545 127.721H56.4985V117.484ZM64.9799 119.079C65.0959 117.281 65.7822 115.879 67.0389 114.874C68.3149 113.869 69.9389 113.366 71.9109 113.366C73.2642 113.366 74.4339 113.608 75.4199 114.091C76.4059 114.574 77.1502 115.232 77.6529 116.063C78.1555 116.894 78.4069 117.832 78.4069 118.876C78.4069 120.075 78.0879 121.099 77.4499 121.95C76.8119 122.801 76.0482 123.371 75.1589 123.661V123.777C76.2995 124.125 77.1889 124.763 77.8269 125.691C78.4649 126.6 78.7839 127.769 78.7839 129.2C78.7839 130.341 78.5229 131.356 78.0009 132.245C77.4789 133.134 76.7055 133.84 75.6809 134.362C74.6562 134.865 73.4285 135.116 71.9979 135.116C69.9099 135.116 68.1892 134.584 66.8359 133.521C65.5019 132.438 64.7865 130.892 64.6899 128.881H67.8799C67.9572 129.906 68.3535 130.747 69.0689 131.404C69.7842 132.042 70.7509 132.361 71.9689 132.361C73.1482 132.361 74.0569 132.042 74.6949 131.404C75.3329 130.747 75.6519 129.906 75.6519 128.881C75.6519 127.528 75.2169 126.571 74.3469 126.01C73.4962 125.43 72.1815 125.14 70.4029 125.14H69.6489V122.414H70.4319C71.9979 122.395 73.1869 122.134 73.9989 121.631C74.8302 121.128 75.2459 120.336 75.2459 119.253C75.2459 118.325 74.9462 117.59 74.3469 117.049C73.7475 116.488 72.8969 116.208 71.7949 116.208C70.7122 116.208 69.8712 116.488 69.2719 117.049C68.6725 117.59 68.3149 118.267 68.1989 119.079H64.9799ZM82.2566 124.154C82.2566 120.809 82.8173 118.199 83.9386 116.324C85.0793 114.429 87.0319 113.482 89.7966 113.482C92.5613 113.482 94.5043 114.429 95.6256 116.324C96.7663 118.199 97.3366 120.809 97.3366 124.154C97.3366 127.537 96.7663 130.186 95.6256 132.1C94.5043 133.995 92.5613 134.942 89.7966 134.942C87.0319 134.942 85.0793 133.995 83.9386 132.1C82.8173 130.186 82.2566 127.537 82.2566 124.154ZM94.0886 124.154C94.0886 122.588 93.9823 121.264 93.7696 120.181C93.5763 119.098 93.1703 118.219 92.5516 117.542C91.9329 116.846 91.0146 116.498 89.7966 116.498C88.5786 116.498 87.6603 116.846 87.0416 117.542C86.4229 118.219 86.0073 119.098 85.7946 120.181C85.6013 121.264 85.5046 122.588 85.5046 124.154C85.5046 125.778 85.6013 127.141 85.7946 128.243C85.9879 129.345 86.3939 130.234 87.0126 130.911C87.6506 131.588 88.5786 131.926 89.7966 131.926C91.0146 131.926 91.9329 131.588 92.5516 130.911C93.1896 130.234 93.6053 129.345 93.7986 128.243C93.9919 127.141 94.0886 125.778 94.0886 124.154ZM107.962 130.592V128.098L117.706 114.12H121.708V127.721H124.405V130.592H121.708V135H118.46V130.592H107.962ZM118.605 117.484L111.761 127.721H118.605V117.484ZM131.262 129.258C131.456 130.225 131.871 130.959 132.509 131.462C133.147 131.965 134.008 132.216 135.09 132.216C136.463 132.216 137.468 131.675 138.106 130.592C138.744 129.509 139.063 127.663 139.063 125.053C138.599 125.71 137.942 126.223 137.091 126.59C136.26 126.938 135.351 127.112 134.365 127.112C133.109 127.112 131.968 126.861 130.943 126.358C129.919 125.836 129.107 125.072 128.507 124.067C127.927 123.042 127.637 121.805 127.637 120.355C127.637 118.228 128.256 116.537 129.493 115.28C130.75 114.004 132.471 113.366 134.655 113.366C137.285 113.366 139.15 114.246 140.252 116.005C141.374 117.745 141.934 120.423 141.934 124.038C141.934 126.532 141.722 128.572 141.296 130.157C140.89 131.742 140.175 132.941 139.15 133.753C138.126 134.565 136.705 134.971 134.887 134.971C132.819 134.971 131.224 134.43 130.102 133.347C128.981 132.264 128.353 130.901 128.217 129.258H131.262ZM134.945 124.328C136.105 124.328 137.014 123.97 137.671 123.255C138.348 122.52 138.686 121.554 138.686 120.355C138.686 119.021 138.329 117.987 137.613 117.252C136.917 116.498 135.96 116.121 134.742 116.121C133.524 116.121 132.558 116.508 131.842 117.281C131.146 118.035 130.798 119.031 130.798 120.268C130.798 121.447 131.137 122.424 131.813 123.197C132.509 123.951 133.553 124.328 134.945 124.328ZM145.553 124.154C145.553 120.809 146.113 118.199 147.235 116.324C148.375 114.429 150.328 113.482 153.093 113.482C155.857 113.482 157.8 114.429 158.922 116.324C160.062 118.199 160.633 120.809 160.633 124.154C160.633 127.537 160.062 130.186 158.922 132.1C157.8 133.995 155.857 134.942 153.093 134.942C150.328 134.942 148.375 133.995 147.235 132.1C146.113 130.186 145.553 127.537 145.553 124.154ZM157.385 124.154C157.385 122.588 157.278 121.264 157.066 120.181C156.872 119.098 156.466 118.219 155.848 117.542C155.229 116.846 154.311 116.498 153.093 116.498C151.875 116.498 150.956 116.846 150.338 117.542C149.719 118.219 149.303 119.098 149.091 120.181C148.897 121.264 148.801 122.588 148.801 124.154C148.801 125.778 148.897 127.141 149.091 128.243C149.284 129.345 149.69 130.234 150.309 130.911C150.947 131.588 151.875 131.926 153.093 131.926C154.311 131.926 155.229 131.588 155.848 130.911C156.486 130.234 156.901 129.345 157.095 128.243C157.288 127.141 157.385 125.778 157.385 124.154ZM164.131 124.154C164.131 120.809 164.691 118.199 165.813 116.324C166.953 114.429 168.906 113.482 171.671 113.482C174.435 113.482 176.378 114.429 177.5 116.324C178.64 118.199 179.211 120.809 179.211 124.154C179.211 127.537 178.64 130.186 177.5 132.1C176.378 133.995 174.435 134.942 171.671 134.942C168.906 134.942 166.953 133.995 165.813 132.1C164.691 130.186 164.131 127.537 164.131 124.154ZM175.963 124.154C175.963 122.588 175.856 121.264 175.644 120.181C175.45 119.098 175.044 118.219 174.426 117.542C173.807 116.846 172.889 116.498 171.671 116.498C170.453 116.498 169.534 116.846 168.916 117.542C168.297 118.219 167.881 119.098 167.669 120.181C167.475 121.264 167.379 122.588 167.379 124.154C167.379 125.778 167.475 127.141 167.669 128.243C167.862 129.345 168.268 130.234 168.887 130.911C169.525 131.588 170.453 131.926 171.671 131.926C172.889 131.926 173.807 131.588 174.426 130.911C175.064 130.234 175.479 129.345 175.673 128.243C175.866 127.141 175.963 125.778 175.963 124.154ZM190.184 119.079C190.3 117.281 190.986 115.879 192.243 114.874C193.519 113.869 195.143 113.366 197.115 113.366C198.468 113.366 199.638 113.608 200.624 114.091C201.61 114.574 202.354 115.232 202.857 116.063C203.36 116.894 203.611 117.832 203.611 118.876C203.611 120.075 203.292 121.099 202.654 121.95C202.016 122.801 201.252 123.371 200.363 123.661V123.777C201.504 124.125 202.393 124.763 203.031 125.691C203.669 126.6 203.988 127.769 203.988 129.2C203.988 130.341 203.727 131.356 203.205 132.245C202.683 133.134 201.91 133.84 200.885 134.362C199.86 134.865 198.633 135.116 197.202 135.116C195.114 135.116 193.393 134.584 192.04 133.521C190.706 132.438 189.991 130.892 189.894 128.881H193.084C193.161 129.906 193.558 130.747 194.273 131.404C194.988 132.042 195.955 132.361 197.173 132.361C198.352 132.361 199.261 132.042 199.899 131.404C200.537 130.747 200.856 129.906 200.856 128.881C200.856 127.528 200.421 126.571 199.551 126.01C198.7 125.43 197.386 125.14 195.607 125.14H194.853V122.414H195.636C197.202 122.395 198.391 122.134 199.203 121.631C200.034 121.128 200.45 120.336 200.45 119.253C200.45 118.325 200.15 117.59 199.551 117.049C198.952 116.488 198.101 116.208 196.999 116.208C195.916 116.208 195.075 116.488 194.476 117.049C193.877 117.59 193.519 118.267 193.403 119.079H190.184ZM209.288 130.505C211.144 128.9 212.603 127.586 213.667 126.561C214.749 125.517 215.648 124.434 216.364 123.313C217.079 122.192 217.437 121.07 217.437 119.949C217.437 118.789 217.156 117.88 216.596 117.223C216.054 116.566 215.194 116.237 214.015 116.237C212.874 116.237 211.985 116.604 211.347 117.339C210.728 118.054 210.399 119.021 210.361 120.239H207.171C207.229 118.035 207.886 116.353 209.143 115.193C210.419 114.014 212.033 113.424 213.986 113.424C216.093 113.424 217.736 114.004 218.916 115.164C220.114 116.324 220.714 117.871 220.714 119.804C220.714 121.196 220.356 122.54 219.641 123.835C218.945 125.111 218.104 126.261 217.118 127.286C216.151 128.291 214.914 129.461 213.406 130.795L212.101 131.955H221.294V134.71H207.2V132.303L209.288 130.505ZM224.14 119.079C224.256 117.281 224.942 115.879 226.199 114.874C227.475 113.869 229.099 113.366 231.071 113.366C232.424 113.366 233.594 113.608 234.58 114.091C235.566 114.574 236.31 115.232 236.813 116.063C237.316 116.894 237.567 117.832 237.567 118.876C237.567 120.075 237.248 121.099 236.61 121.95C235.972 122.801 235.208 123.371 234.319 123.661V123.777C235.46 124.125 236.349 124.763 236.987 125.691C237.625 126.6 237.944 127.769 237.944 129.2C237.944 130.341 237.683 131.356 237.161 132.245C236.639 133.134 235.866 133.84 234.841 134.362C233.816 134.865 232.589 135.116 231.158 135.116C229.07 135.116 227.349 134.584 225.996 133.521C224.662 132.438 223.947 130.892 223.85 128.881H227.04C227.117 129.906 227.514 130.747 228.229 131.404C228.944 132.042 229.911 132.361 231.129 132.361C232.308 132.361 233.217 132.042 233.855 131.404C234.493 130.747 234.812 129.906 234.812 128.881C234.812 127.528 234.377 126.571 233.507 126.01C232.656 125.43 231.342 125.14 229.563 125.14H228.809V122.414H229.592C231.158 122.395 232.347 122.134 233.159 121.631C233.99 121.128 234.406 120.336 234.406 119.253C234.406 118.325 234.106 117.59 233.507 117.049C232.908 116.488 232.057 116.208 230.955 116.208C229.872 116.208 229.031 116.488 228.432 117.049C227.833 117.59 227.475 118.267 227.359 119.079H224.14ZM243.244 130.505C245.1 128.9 246.559 127.586 247.623 126.561C248.705 125.517 249.604 124.434 250.32 123.313C251.035 122.192 251.393 121.07 251.393 119.949C251.393 118.789 251.112 117.88 250.552 117.223C250.01 116.566 249.15 116.237 247.971 116.237C246.83 116.237 245.941 116.604 245.303 117.339C244.684 118.054 244.355 119.021 244.317 120.239H241.127C241.185 118.035 241.842 116.353 243.099 115.193C244.375 114.014 245.989 113.424 247.942 113.424C250.049 113.424 251.692 114.004 252.872 115.164C254.07 116.324 254.67 117.871 254.67 119.804C254.67 121.196 254.312 122.54 253.597 123.835C252.901 125.111 252.06 126.261 251.074 127.286C250.107 128.291 248.87 129.461 247.362 130.795L246.057 131.955H255.25V134.71H241.156V132.303L243.244 130.505ZM269.805 129.258C269.999 130.225 270.414 130.959 271.052 131.462C271.69 131.965 272.551 132.216 273.633 132.216C275.006 132.216 276.011 131.675 276.649 130.592C277.287 129.509 277.606 127.663 277.606 125.053C277.142 125.71 276.485 126.223 275.634 126.59C274.803 126.938 273.894 127.112 272.908 127.112C271.652 127.112 270.511 126.861 269.486 126.358C268.462 125.836 267.65 125.072 267.05 124.067C266.47 123.042 266.18 121.805 266.18 120.355C266.18 118.228 266.799 116.537 268.036 115.28C269.293 114.004 271.014 113.366 273.198 113.366C275.828 113.366 277.693 114.246 278.795 116.005C279.917 117.745 280.477 120.423 280.477 124.038C280.477 126.532 280.265 128.572 279.839 130.157C279.433 131.742 278.718 132.941 277.693 133.753C276.669 134.565 275.248 134.971 273.43 134.971C271.362 134.971 269.767 134.43 268.645 133.347C267.524 132.264 266.896 130.901 266.76 129.258H269.805ZM273.488 124.328C274.648 124.328 275.557 123.97 276.214 123.255C276.891 122.52 277.229 121.554 277.229 120.355C277.229 119.021 276.872 117.987 276.156 117.252C275.46 116.498 274.503 116.121 273.285 116.121C272.067 116.121 271.101 116.508 270.385 117.281C269.689 118.035 269.341 119.031 269.341 120.268C269.341 121.447 269.68 122.424 270.356 123.197C271.052 123.951 272.096 124.328 273.488 124.328ZM297.493 116.411L289.431 135H286.096L294.245 116.759H283.515V113.946H297.493V116.411ZM313.953 116.701H304.238V122.472C304.644 121.931 305.243 121.476 306.036 121.109C306.848 120.742 307.708 120.558 308.617 120.558C310.241 120.558 311.556 120.906 312.561 121.602C313.586 122.298 314.311 123.178 314.736 124.241C315.181 125.304 315.403 126.426 315.403 127.605C315.403 129.036 315.123 130.312 314.562 131.433C314.021 132.535 313.199 133.405 312.097 134.043C311.014 134.681 309.68 135 308.095 135C305.988 135 304.296 134.478 303.02 133.434C301.744 132.39 300.98 131.008 300.729 129.287H303.948C304.161 130.196 304.634 130.921 305.369 131.462C306.104 131.984 307.022 132.245 308.124 132.245C309.497 132.245 310.521 131.829 311.198 130.998C311.894 130.167 312.242 129.065 312.242 127.692C312.242 126.3 311.894 125.237 311.198 124.502C310.502 123.748 309.477 123.371 308.124 123.371C307.177 123.371 306.374 123.613 305.717 124.096C305.079 124.56 304.615 125.198 304.325 126.01H301.193V113.801H313.953V116.701ZM332.474 116.701H322.759V122.472C323.165 121.931 323.765 121.476 324.557 121.109C325.369 120.742 326.23 120.558 327.138 120.558C328.762 120.558 330.077 120.906 331.082 121.602C332.107 122.298 332.832 123.178 333.257 124.241C333.702 125.304 333.924 126.426 333.924 127.605C333.924 129.036 333.644 130.312 333.083 131.433C332.542 132.535 331.72 133.405 330.618 134.043C329.536 134.681 328.202 135 326.616 135C324.509 135 322.817 134.478 321.541 133.434C320.265 132.39 319.502 131.008 319.25 129.287H322.469C322.682 130.196 323.156 130.921 323.89 131.462C324.625 131.984 325.543 132.245 326.645 132.245C328.018 132.245 329.043 131.829 329.719 130.998C330.415 130.167 330.763 129.065 330.763 127.692C330.763 126.3 330.415 125.237 329.719 124.502C329.023 123.748 327.999 123.371 326.645 123.371C325.698 123.371 324.896 123.613 324.238 124.096C323.6 124.56 323.136 125.198 322.846 126.01H319.714V113.801H332.474V116.701Z" fill="white"/>
<path d="M34.19 216L29.024 210.276V216H27.386V203.454H29.024V209.268L34.208 203.454H36.278L30.59 209.736L36.332 216H34.19ZM43.0574 205.956C43.8014 205.956 44.4734 206.118 45.0734 206.442C45.6734 206.754 46.1414 207.228 46.4774 207.864C46.8254 208.5 46.9994 209.274 46.9994 210.186V216H45.3794V210.42C45.3794 209.436 45.1334 208.686 44.6414 208.17C44.1494 207.642 43.4774 207.378 42.6254 207.378C41.7614 207.378 41.0714 207.648 40.5554 208.188C40.0514 208.728 39.7994 209.514 39.7994 210.546V216H38.1614V202.68H39.7994V207.54C40.1234 207.036 40.5674 206.646 41.1314 206.37C41.7074 206.094 42.3494 205.956 43.0574 205.956ZM49.0631 211.032C49.0631 210.024 49.2671 209.142 49.6751 208.386C50.0831 207.618 50.6411 207.024 51.3491 206.604C52.0691 206.184 52.8671 205.974 53.7431 205.974C54.6071 205.974 55.3571 206.16 55.9931 206.532C56.6291 206.904 57.1031 207.372 57.4151 207.936V206.136H59.0711V216H57.4151V214.164C57.0911 214.74 56.6051 215.22 55.9571 215.604C55.3211 215.976 54.5771 216.162 53.7251 216.162C52.8491 216.162 52.0571 215.946 51.3491 215.514C50.6411 215.082 50.0831 214.476 49.6751 213.696C49.2671 212.916 49.0631 212.028 49.0631 211.032ZM57.4151 211.05C57.4151 210.306 57.2651 209.658 56.9651 209.106C56.6651 208.554 56.2571 208.134 55.7411 207.846C55.2371 207.546 54.6791 207.396 54.0671 207.396C53.4551 207.396 52.8971 207.54 52.3931 207.828C51.8891 208.116 51.4871 208.536 51.1871 209.088C50.8871 209.64 50.7371 210.288 50.7371 211.032C50.7371 211.788 50.8871 212.448 51.1871 213.012C51.4871 213.564 51.8891 213.99 52.3931 214.29C52.8971 214.578 53.4551 214.722 54.0671 214.722C54.6791 214.722 55.2371 214.578 55.7411 214.29C56.2571 213.99 56.6651 213.564 56.9651 213.012C57.2651 212.448 57.4151 211.794 57.4151 211.05ZM63.4771 202.68V216H61.8391V202.68H63.4771ZM67.1148 204.534C66.8028 204.534 66.5388 204.426 66.3228 204.21C66.1068 203.994 65.9988 203.73 65.9988 203.418C65.9988 203.106 66.1068 202.842 66.3228 202.626C66.5388 202.41 66.8028 202.302 67.1148 202.302C67.4148 202.302 67.6668 202.41 67.8708 202.626C68.0868 202.842 68.1948 203.106 68.1948 203.418C68.1948 203.73 68.0868 203.994 67.8708 204.21C67.6668 204.426 67.4148 204.534 67.1148 204.534ZM67.9068 206.136V216H66.2688V206.136H67.9068ZM70.0865 211.032C70.0865 210.024 70.2905 209.142 70.6985 208.386C71.1065 207.618 71.6645 207.024 72.3725 206.604C73.0925 206.184 73.8965 205.974 74.7845 205.974C75.5525 205.974 76.2665 206.154 76.9265 206.514C77.5865 206.862 78.0905 207.324 78.4385 207.9V202.68H80.0945V216H78.4385V214.146C78.1145 214.734 77.6345 215.22 76.9985 215.604C76.3625 215.976 75.6185 216.162 74.7665 216.162C73.8905 216.162 73.0925 215.946 72.3725 215.514C71.6645 215.082 71.1065 214.476 70.6985 213.696C70.2905 212.916 70.0865 212.028 70.0865 211.032ZM78.4385 211.05C78.4385 210.306 78.2885 209.658 77.9885 209.106C77.6885 208.554 77.2805 208.134 76.7645 207.846C76.2605 207.546 75.7025 207.396 75.0905 207.396C74.4785 207.396 73.9205 207.54 73.4165 207.828C72.9125 208.116 72.5105 208.536 72.2105 209.088C71.9105 209.64 71.7605 210.288 71.7605 211.032C71.7605 211.788 71.9105 212.448 72.2105 213.012C72.5105 213.564 72.9125 213.99 73.4165 214.29C73.9205 214.578 74.4785 214.722 75.0905 214.722C75.7025 214.722 76.2605 214.578 76.7645 214.29C77.2805 213.99 77.6885 213.564 77.9885 213.012C78.2885 212.448 78.4385 211.794 78.4385 211.05ZM95.0774 213.21H89.6054L88.5974 216H86.8694L91.4054 203.526H93.2954L97.8134 216H96.0854L95.0774 213.21ZM94.6094 211.878L92.3414 205.542L90.0734 211.878H94.6094ZM99.1783 211.032C99.1783 210.024 99.3823 209.142 99.7903 208.386C100.198 207.618 100.756 207.024 101.464 206.604C102.184 206.184 102.988 205.974 103.876 205.974C104.728 205.974 105.472 206.166 106.108 206.55C106.756 206.922 107.23 207.384 107.53 207.936V206.136H109.186V220.68H107.53V214.182C107.218 214.734 106.738 215.202 106.09 215.586C105.442 215.97 104.686 216.162 103.822 216.162C102.958 216.162 102.172 215.946 101.464 215.514C100.756 215.082 100.198 214.476 99.7903 213.696C99.3823 212.916 99.1783 212.028 99.1783 211.032ZM107.53 211.05C107.53 210.306 107.38 209.658 107.08 209.106C106.78 208.554 106.372 208.134 105.856 207.846C105.352 207.546 104.794 207.396 104.182 207.396C103.57 207.396 103.012 207.54 102.508 207.828C102.004 208.116 101.602 208.536 101.302 209.088C101.002 209.64 100.852 210.288 100.852 211.032C100.852 211.788 101.002 212.448 101.302 213.012C101.602 213.564 102.004 213.99 102.508 214.29C103.012 214.578 103.57 214.722 104.182 214.722C104.794 214.722 105.352 214.578 105.856 214.29C106.372 213.99 106.78 213.564 107.08 213.012C107.38 212.448 107.53 211.794 107.53 211.05ZM120.954 210.69C120.954 211.002 120.936 211.332 120.9 211.68H113.016C113.076 212.652 113.406 213.414 114.006 213.966C114.618 214.506 115.356 214.776 116.22 214.776C116.928 214.776 117.516 214.614 117.984 214.29C118.464 213.954 118.8 213.51 118.992 212.958H120.756C120.492 213.906 119.964 214.68 119.172 215.28C118.38 215.868 117.396 216.162 116.22 216.162C115.284 216.162 114.444 215.952 113.7 215.532C112.968 215.112 112.392 214.518 111.972 213.75C111.552 212.97 111.342 212.07 111.342 211.05C111.342 210.03 111.546 209.136 111.954 208.368C112.362 207.6 112.932 207.012 113.664 206.604C114.408 206.184 115.26 205.974 116.22 205.974C117.156 205.974 117.984 206.178 118.704 206.586C119.424 206.994 119.976 207.558 120.36 208.278C120.756 208.986 120.954 209.79 120.954 210.69ZM119.262 210.348C119.262 209.724 119.124 209.19 118.848 208.746C118.572 208.29 118.194 207.948 117.714 207.72C117.246 207.48 116.724 207.36 116.148 207.36C115.32 207.36 114.612 207.624 114.024 208.152C113.448 208.68 113.118 209.412 113.034 210.348H119.262ZM132.116 210.69C132.116 211.002 132.098 211.332 132.062 211.68H124.178C124.238 212.652 124.568 213.414 125.168 213.966C125.78 214.506 126.518 214.776 127.382 214.776C128.09 214.776 128.678 214.614 129.146 214.29C129.626 213.954 129.962 213.51 130.154 212.958H131.918C131.654 213.906 131.126 214.68 130.334 215.28C129.542 215.868 128.558 216.162 127.382 216.162C126.446 216.162 125.606 215.952 124.862 215.532C124.13 215.112 123.554 214.518 123.134 213.75C122.714 212.97 122.504 212.07 122.504 211.05C122.504 210.03 122.708 209.136 123.116 208.368C123.524 207.6 124.094 207.012 124.826 206.604C125.57 206.184 126.422 205.974 127.382 205.974C128.318 205.974 129.146 206.178 129.866 206.586C130.586 206.994 131.138 207.558 131.522 208.278C131.918 208.986 132.116 209.79 132.116 210.69ZM130.424 210.348C130.424 209.724 130.286 209.19 130.01 208.746C129.734 208.29 129.356 207.948 128.876 207.72C128.408 207.48 127.886 207.36 127.31 207.36C126.482 207.36 125.774 207.624 125.186 208.152C124.61 208.68 124.28 209.412 124.196 210.348H130.424ZM135.917 202.68V216H134.279V202.68H135.917ZM139.554 204.534C139.242 204.534 138.978 204.426 138.762 204.21C138.546 203.994 138.438 203.73 138.438 203.418C138.438 203.106 138.546 202.842 138.762 202.626C138.978 202.41 139.242 202.302 139.554 202.302C139.854 202.302 140.106 202.41 140.31 202.626C140.526 202.842 140.634 203.106 140.634 203.418C140.634 203.73 140.526 203.994 140.31 204.21C140.106 204.426 139.854 204.534 139.554 204.534ZM140.346 206.136V216H138.708V206.136H140.346Z" fill="white"/>
<path d="M274.532 228.04V226.878H277.164V237H275.876V228.04H274.532ZM279.016 228.04V226.878H281.648V237H280.36V228.04H279.016ZM288.807 223.812L284.971 239.38H283.711L287.533 223.812H288.807ZM290.159 228.04V226.878H292.791V237H291.503V228.04H290.159ZM294.643 228.04V226.878H297.275V237H295.987V228.04H294.643ZM304.434 223.812L300.598 239.38H299.338L303.16 223.812H304.434ZM305.968 235.978C307.153 235.026 308.082 234.247 308.754 233.64C309.426 233.024 309.991 232.385 310.448 231.722C310.915 231.05 311.148 230.392 311.148 229.748C311.148 229.141 310.999 228.665 310.7 228.32C310.411 227.965 309.939 227.788 309.286 227.788C308.651 227.788 308.157 227.989 307.802 228.39C307.457 228.782 307.27 229.309 307.242 229.972H306.01C306.047 228.927 306.365 228.119 306.962 227.55C307.559 226.981 308.329 226.696 309.272 226.696C310.233 226.696 310.994 226.962 311.554 227.494C312.123 228.026 312.408 228.759 312.408 229.692C312.408 230.467 312.175 231.223 311.708 231.96C311.251 232.688 310.728 233.332 310.14 233.892C309.552 234.443 308.801 235.087 307.886 235.824H312.702V236.888H305.968V235.978ZM313.867 234.746V233.78L318.781 226.976H320.307V233.64H321.707V234.746H320.307V237H319.047V234.746H313.867ZM319.103 228.306L315.337 233.64H319.103V228.306Z" fill="white"/>
<path d="M280.74 206.05L278.13 213H276.81L274.19 206.05H275.41L277.47 211.83L279.54 206.05H280.74ZM281.313 210.22C281.313 209.667 281.427 209.177 281.653 208.75C281.887 208.323 282.2 207.993 282.593 207.76C282.993 207.52 283.433 207.4 283.913 207.4C284.347 207.4 284.723 207.487 285.043 207.66C285.37 207.827 285.63 208.037 285.823 208.29V207.49H286.973V213H285.823V212.18C285.63 212.44 285.367 212.657 285.033 212.83C284.7 213.003 284.32 213.09 283.893 213.09C283.42 213.09 282.987 212.97 282.593 212.73C282.2 212.483 281.887 212.143 281.653 211.71C281.427 211.27 281.313 210.773 281.313 210.22ZM285.823 210.24C285.823 209.86 285.743 209.53 285.583 209.25C285.43 208.97 285.227 208.757 284.973 208.61C284.72 208.463 284.447 208.39 284.153 208.39C283.86 208.39 283.587 208.463 283.333 208.61C283.08 208.75 282.873 208.96 282.713 209.24C282.56 209.513 282.483 209.84 282.483 210.22C282.483 210.6 282.56 210.933 282.713 211.22C282.873 211.507 283.08 211.727 283.333 211.88C283.593 212.027 283.867 212.1 284.153 212.1C284.447 212.1 284.72 212.027 284.973 211.88C285.227 211.733 285.43 211.52 285.583 211.24C285.743 210.953 285.823 210.62 285.823 210.24ZM289.051 206.76C288.844 206.76 288.671 206.69 288.531 206.55C288.391 206.41 288.321 206.237 288.321 206.03C288.321 205.823 288.391 205.65 288.531 205.51C288.671 205.37 288.844 205.3 289.051 205.3C289.251 205.3 289.421 205.37 289.561 205.51C289.701 205.65 289.771 205.823 289.771 206.03C289.771 206.237 289.701 206.41 289.561 206.55C289.421 206.69 289.251 206.76 289.051 206.76ZM289.611 207.49V213H288.471V207.49H289.611ZM292.247 205.6V213H291.107V205.6H292.247ZM293.364 210.22C293.364 209.667 293.477 209.177 293.704 208.75C293.937 208.323 294.251 207.993 294.644 207.76C295.044 207.52 295.487 207.4 295.974 207.4C296.334 207.4 296.687 207.48 297.034 207.64C297.387 207.793 297.667 208 297.874 208.26V205.6H299.024V213H297.874V212.17C297.687 212.437 297.427 212.657 297.094 212.83C296.767 213.003 296.391 213.09 295.964 213.09C295.484 213.09 295.044 212.97 294.644 212.73C294.251 212.483 293.937 212.143 293.704 211.71C293.477 211.27 293.364 210.773 293.364 210.22ZM297.874 210.24C297.874 209.86 297.794 209.53 297.634 209.25C297.481 208.97 297.277 208.757 297.024 208.61C296.771 208.463 296.497 208.39 296.204 208.39C295.911 208.39 295.637 208.463 295.384 208.61C295.131 208.75 294.924 208.96 294.764 209.24C294.611 209.513 294.534 209.84 294.534 210.22C294.534 210.6 294.611 210.933 294.764 211.22C294.924 211.507 295.131 211.727 295.384 211.88C295.644 212.027 295.917 212.1 296.204 212.1C296.497 212.1 296.771 212.027 297.024 211.88C297.277 211.733 297.481 211.52 297.634 211.24C297.794 210.953 297.874 210.62 297.874 210.24ZM302.739 210.22C302.739 209.667 302.852 209.177 303.079 208.75C303.312 208.323 303.626 207.993 304.019 207.76C304.419 207.52 304.862 207.4 305.349 207.4C305.709 207.4 306.062 207.48 306.409 207.64C306.762 207.793 307.042 208 307.249 208.26V205.6H308.399V213H307.249V212.17C307.062 212.437 306.802 212.657 306.469 212.83C306.142 213.003 305.766 213.09 305.339 213.09C304.859 213.09 304.419 212.97 304.019 212.73C303.626 212.483 303.312 212.143 303.079 211.71C302.852 211.27 302.739 210.773 302.739 210.22ZM307.249 210.24C307.249 209.86 307.169 209.53 307.009 209.25C306.856 208.97 306.652 208.757 306.399 208.61C306.146 208.463 305.872 208.39 305.579 208.39C305.286 208.39 305.012 208.463 304.759 208.61C304.506 208.75 304.299 208.96 304.139 209.24C303.986 209.513 303.909 209.84 303.909 210.22C303.909 210.6 303.986 210.933 304.139 211.22C304.299 211.507 304.506 211.727 304.759 211.88C305.019 212.027 305.292 212.1 305.579 212.1C305.872 212.1 306.146 212.027 306.399 211.88C306.652 211.733 306.856 211.52 307.009 211.24C307.169 210.953 307.249 210.62 307.249 210.24ZM309.516 210.22C309.516 209.667 309.63 209.177 309.856 208.75C310.09 208.323 310.403 207.993 310.796 207.76C311.196 207.52 311.636 207.4 312.116 207.4C312.55 207.4 312.926 207.487 313.246 207.66C313.573 207.827 313.833 208.037 314.026 208.29V207.49H315.176V213H314.026V212.18C313.833 212.44 313.57 212.657 313.236 212.83C312.903 213.003 312.523 213.09 312.096 213.09C311.623 213.09 311.19 212.97 310.796 212.73C310.403 212.483 310.09 212.143 309.856 211.71C309.63 211.27 309.516 210.773 309.516 210.22ZM314.026 210.24C314.026 209.86 313.946 209.53 313.786 209.25C313.633 208.97 313.43 208.757 313.176 208.61C312.923 208.463 312.65 208.39 312.356 208.39C312.063 208.39 311.79 208.463 311.536 208.61C311.283 208.75 311.076 208.96 310.916 209.24C310.763 209.513 310.686 209.84 310.686 210.22C310.686 210.6 310.763 210.933 310.916 211.22C311.076 211.507 311.283 211.727 311.536 211.88C311.796 212.027 312.07 212.1 312.356 212.1C312.65 212.1 312.923 212.027 313.176 211.88C313.43 211.733 313.633 211.52 313.786 211.24C313.946 210.953 314.026 210.62 314.026 210.24ZM318.004 208.42V211.47C318.004 211.677 318.05 211.827 318.144 211.92C318.244 212.007 318.41 212.05 318.644 212.05H319.344V213H318.444C317.93 213 317.537 212.88 317.264 212.64C316.99 212.4 316.854 212.01 316.854 211.47V208.42H316.204V207.49H316.854V206.12H318.004V207.49H319.344V208.42H318.004ZM325.445 210.11C325.445 210.317 325.431 210.503 325.405 210.67H321.195C321.228 211.11 321.391 211.463 321.685 211.73C321.978 211.997 322.338 212.13 322.765 212.13C323.378 212.13 323.811 211.873 324.065 211.36H325.295C325.128 211.867 324.825 212.283 324.385 212.61C323.951 212.93 323.411 213.09 322.765 213.09C322.238 213.09 321.765 212.973 321.345 212.74C320.931 212.5 320.605 212.167 320.365 211.74C320.131 211.307 320.015 210.807 320.015 210.24C320.015 209.673 320.128 209.177 320.355 208.75C320.588 208.317 320.911 207.983 321.325 207.75C321.745 207.517 322.225 207.4 322.765 207.4C323.285 207.4 323.748 207.513 324.155 207.74C324.561 207.967 324.878 208.287 325.105 208.7C325.331 209.107 325.445 209.577 325.445 210.11ZM324.255 209.75C324.248 209.33 324.098 208.993 323.805 208.74C323.511 208.487 323.148 208.36 322.715 208.36C322.321 208.36 321.985 208.487 321.705 208.74C321.425 208.987 321.258 209.323 321.205 209.75H324.255Z" fill="white"/>
<defs>
<linearGradient id="paint0_linear_107_4" x1="441" y1="3.99999" x2="3" y2="268" gradientUnits="userSpaceOnUse">
<stop stop-color="#0A0A0A"/>
<stop offset="1" stop-color="#1D1D1D" stop-opacity="0.76"/>
</linearGradient>
</defs>
</svg>
